<?xml version="1.0" encoding="UTF-8"?>
<!--Generator: Apple Native CoreSVG 341-->
<!DOCTYPE svg
PUBLIC "-//W3C//DTD SVG 1.1//EN"
       "http://www.w3.org/Graphics/SVG/1.1/DTD/svg11.dtd">
<svg version="1.1" xmlns="http://www.w3.org/2000/svg" xmlns:xlink="http://www.w3.org/1999/xlink" viewBox="0 0 20.1758 21.7578">
 <g>
  <rect height="21.7578" opacity="0" width="20.1758" x="0" y="0"/>
  <path d="M2.88086 21.7188L16.9336 21.7188C18.6816 21.7188 19.8145 20.4199 19.8145 18.8428C19.8145 18.335 19.6289 17.7393 19.248 17.1484L13.7354 8.39844L12.0166 9.80957L17.2412 18.0762C17.3633 18.2666 17.373 18.4619 17.373 18.5938C17.373 19.0723 17.0264 19.5068 16.4893 19.5068L3.3252 19.5068C2.77832 19.5068 2.44141 19.0723 2.44141 18.5938C2.44141 18.4619 2.45117 18.2666 2.57324 18.0762L7.79297 9.80957L6.0791 8.39844L0.517578 17.2168C0.166016 17.7588 0 18.335 0 18.8428C0 20.4199 1.12793 21.7188 2.88086 21.7188ZM5.56641 9.80957L7.79297 9.80957L7.79297 1.09863L5.56641 1.09863ZM14.248 9.80957L14.248 1.09863L12.0166 1.09863L12.0166 9.80957ZM5.81543 2.2998L13.9941 2.2998C14.6533 2.2998 15.1514 1.78223 15.1514 1.14258C15.1514 0.498047 14.6631 0 13.9941 0L5.81543 0C5.14648 0 4.66309 0.498047 4.66309 1.14258C4.66309 1.78223 5.15137 2.2998 5.81543 2.2998ZM6.75781 5.02441L9.54102 5.02441C9.91699 5.02441 10.2002 4.73633 10.2002 4.35547C10.2002 3.99902 9.90723 3.70605 9.53613 3.70605L6.75781 3.70605ZM6.76758 7.68555L9.5459 7.68555C9.92188 7.68555 10.2051 7.39258 10.2051 7.01172C10.2051 6.65527 9.91211 6.36719 9.54102 6.36719L6.76758 6.36719ZM6.76758 10.3418L9.5459 10.3418C9.92188 10.3418 10.2051 10.0537 10.2051 9.67285C10.2051 9.31641 9.91699 9.02344 9.5459 9.02344L6.76758 9.02344Z" fill="white" fill-opacity="0.85"/>
 </g>
</svg>
