<?xml version="1.0" encoding="UTF-8"?>
<!--Generator: Apple Native CoreSVG 341-->
<!DOCTYPE svg
PUBLIC "-//W3C//DTD SVG 1.1//EN"
       "http://www.w3.org/Graphics/SVG/1.1/DTD/svg11.dtd">
<svg version="1.1" xmlns="http://www.w3.org/2000/svg" xmlns:xlink="http://www.w3.org/1999/xlink" viewBox="0 0 29.6836 18.877">
 <g>
  <rect height="18.877" opacity="0" width="29.6836" x="0" y="0"/>
  <path d="M4.72218 18.877L24.6001 18.877C28.0523 18.877 29.6831 16.8262 29.2485 13.2324L28.1792 4.37988C27.8374 1.50391 26.27 0 23.6235 0L5.69874 0C3.05226 0 1.47999 1.50391 1.13819 4.37988L0.068857 13.2324C-0.365713 16.8262 1.26515 18.877 4.72218 18.877ZM4.72218 16.3574C3.11573 16.3574 2.3589 15.2393 2.58351 13.3594L3.63819 4.68262C3.80909 3.2666 4.5171 2.51953 5.69874 2.51953L23.6235 2.51953C24.8052 2.51953 25.5083 3.2666 25.6792 4.68262L26.729 13.3594C26.9634 15.2441 26.2017 16.3574 24.6001 16.3574Z" fill="white" fill-opacity="0.85"/>
  <path d="M8.1255 12.0996C8.60401 12.0996 8.95558 11.8799 8.95558 11.5527L8.95558 8.9502C9.88331 8.62305 10.5523 7.72949 10.5523 6.67969C10.5523 5.3418 9.46339 4.24805 8.1255 4.24805C6.78272 4.24805 5.68897 5.34668 5.68897 6.67969C5.68897 7.73438 6.3628 8.62793 7.3003 8.95996L7.3003 11.5527C7.3003 11.8799 7.65186 12.0996 8.1255 12.0996ZM8.13038 14.375C10.2153 14.375 11.6753 13.2471 11.6753 11.665C11.6753 10.5908 10.9966 9.73145 9.92726 9.28223L9.92726 10.8252C10.1763 11.04 10.3228 11.3281 10.3228 11.665C10.3228 12.5537 9.42921 13.1689 8.13038 13.1689C6.82667 13.1689 5.92335 12.5537 5.92335 11.665C5.92335 11.3232 6.06983 11.0303 6.32862 10.8154L6.32862 9.28711C5.2544 9.72168 4.57569 10.5908 4.57569 11.665C4.57569 13.2471 6.04542 14.375 8.13038 14.375ZM13.8384 8.8623C14.6929 8.8623 15.3618 8.19824 15.3618 7.34863C15.3618 6.49902 14.6929 5.8252 13.8384 5.8252C12.9985 5.8252 12.3198 6.49902 12.3198 7.34863C12.3198 8.19824 12.9985 8.8623 13.8384 8.8623ZM18.0669 8.8623C18.9116 8.8623 19.5903 8.19824 19.5903 7.34863C19.5903 6.49902 18.9116 5.8252 18.0669 5.8252C17.2173 5.8252 16.5435 6.49902 16.5435 7.34863C16.5435 8.19824 17.2173 8.8623 18.0669 8.8623ZM22.2661 8.8623C23.1157 8.8623 23.7896 8.19824 23.7896 7.34863C23.7896 6.49902 23.1157 5.8252 22.2661 5.8252C21.4263 5.8252 20.7427 6.49902 20.7427 7.34863C20.7427 8.19824 21.4263 8.8623 22.2661 8.8623ZM15.1372 13.0664C15.9868 13.0664 16.6558 12.4023 16.6558 11.5527C16.6558 10.7031 15.9868 10.0293 15.1372 10.0293C14.2925 10.0293 13.6138 10.7031 13.6138 11.5527C13.6138 12.4023 14.2925 13.0664 15.1372 13.0664ZM19.3608 13.0664C20.2105 13.0664 20.8843 12.4023 20.8843 11.5527C20.8843 10.7031 20.2105 10.0293 19.3608 10.0293C18.5161 10.0293 17.8423 10.7031 17.8423 11.5527C17.8423 12.4023 18.5161 13.0664 19.3608 13.0664ZM23.5698 13.0664C24.4194 13.0664 25.0933 12.4023 25.0933 11.5527C25.0933 10.7031 24.4194 10.0293 23.5698 10.0293C22.7251 10.0293 22.0513 10.7031 22.0513 11.5527C22.0513 12.4023 22.7251 13.0664 23.5698 13.0664Z" fill="white" fill-opacity="0.85"/>
 </g>
</svg>
