<?xml version="1.0" encoding="UTF-8"?>
<!--Generator: Apple Native CoreSVG 341-->
<!DOCTYPE svg
PUBLIC "-//W3C//DTD SVG 1.1//EN"
       "http://www.w3.org/Graphics/SVG/1.1/DTD/svg11.dtd">
<svg version="1.1" xmlns="http://www.w3.org/2000/svg" xmlns:xlink="http://www.w3.org/1999/xlink" viewBox="0 0 24.0283 24.3945">
 <g>
  <rect height="24.3945" opacity="0" width="24.0283" x="0" y="0"/>
  <path d="M10.2734 5.60547L6.15234 5.60547C4.63867 5.60547 3.48145 6.74805 3.48145 8.2666C3.48145 9.79004 4.63379 10.9277 6.15234 10.9277L17.5098 10.9277C20.498 10.9277 22.6904 13.125 22.6904 16.1182C22.6904 19.0967 20.498 21.2842 17.5098 21.2842L14.0234 21.2842L14.0234 18.7744L17.5098 18.7744C19.0283 18.7744 20.1758 17.6318 20.1758 16.1182C20.1758 14.5947 19.0332 13.4473 17.5098 13.4473L6.15234 13.4473C3.16406 13.4473 0.966797 11.2549 0.966797 8.2666C0.966797 5.2832 3.16406 3.09082 6.15234 3.09082L10.2734 3.09082Z" fill="white" fill-opacity="0.85"/>
  <path d="M13.0518 18.7256L13.0518 21.3379C13.0518 22.2852 12.6562 22.6855 11.709 22.6855L6.15723 22.6855C5.20996 22.6855 4.81934 22.2852 4.81934 21.3379L4.81934 18.7256C4.81934 17.7783 5.21484 17.373 6.15723 17.373L11.709 17.373C12.6514 17.373 13.0518 17.7783 13.0518 18.7256ZM3.85254 21.4404L1.85059 21.4404C1.27441 21.4404 0.966797 21.1328 0.966797 20.5469L0.966797 19.5166C0.966797 18.9355 1.27441 18.6279 1.85059 18.6279L3.85254 18.6279Z" fill="white" fill-opacity="0.85"/>
  <path d="M12.6611 7.72949L16.958 7.72949C17.8662 7.72949 18.374 7.23145 18.374 6.3623L18.374 2.34375C18.374 1.47461 17.8857 0.97168 16.9824 0.97168L12.6611 0.97168C11.7676 0.97168 11.2451 1.47461 11.2451 2.34375L11.2451 6.41113C11.2451 7.28027 11.7529 7.72949 12.6611 7.72949ZM19.3652 5.67383L20.6689 6.77246C20.8643 6.93848 21.0449 7.06055 21.25 7.06055C21.5918 7.06055 21.8262 6.82129 21.8262 6.45508L21.8262 2.29004C21.8262 1.92871 21.5918 1.68945 21.25 1.68945C21.0449 1.68945 20.8691 1.80664 20.6689 1.96777L19.3652 3.07617Z" fill="white" fill-opacity="0.85"/>
 </g>
</svg>
