<?xml version="1.0" encoding="utf-8"?>
<!-- Svg Vector Icons : http://www.onlinewebfonts.com/icon -->
<!DOCTYPE svg PUBLIC "-//W3C//DTD SVG 1.1//EN" "http://www.w3.org/Graphics/SVG/1.1/DTD/svg11.dtd">
<svg version="1.1" xmlns="http://www.w3.org/2000/svg" xmlns:xlink="http://www.w3.org/1999/xlink" x="0px" y="0px" width="31" height="31" viewBox="0 0 256 256" enable-background="new 0 0 256 256" xml:space="preserve">
<metadata> Svg Vector Icons : http://www.onlinewebfonts.com/icon </metadata>
<g><g><path fill="#000000" d="M25.6,71.8h29.8v15.5H25.6V71.8z"/><path fill="#000000" d="M75,22.4h15.5v29.8H75V22.4z"/><path fill="#000000" d="M96.3,212.6c-14.6,14.6-38.3,14.6-52.9,0c-14.6-14.6-14.6-38.3,0-52.9l42.3-42.3l-15.9-15.9l-42.3,42.3c-23.4,23.4-23.4,61.2,0,84.6c23.3,23.3,61.2,23.4,84.6,0l42.3-42.3l-15.9-15.9L96.3,212.6z"/><path fill="#000000" d="M48,33.8l21.1,21.1L58.1,65.8L37,44.8L48,33.8z"/><path fill="#000000" d="M208.1,215.8L187,194.7l10.9-10.9l21.1,21.1L208.1,215.8z"/><path fill="#000000" d="M200.6,162.4h29.8v15.5h-29.8V162.4z"/><path fill="#000000" d="M165.5,197.5H181v29.8h-15.5V197.5z"/><path fill="#000000" d="M228.5,27.5c-23.3-23.3-61.2-23.4-84.6,0l-42.3,42.3l15.9,15.9l42.3-42.3c14.6-14.6,38.3-14.6,52.9,0c14.6,14.6,14.6,38.3,0,52.9l-42.3,42.3l15.9,15.9l42.3-42.3C251.9,88.7,251.8,50.9,228.5,27.5z"/></g></g>
</svg>