<?xml version="1.0" encoding="UTF-8"?>
<!--Generator: Apple Native CoreSVG 341-->
<!DOCTYPE svg
PUBLIC "-//W3C//DTD SVG 1.1//EN"
       "http://www.w3.org/Graphics/SVG/1.1/DTD/svg11.dtd">
<svg version="1.1" xmlns="http://www.w3.org/2000/svg" xmlns:xlink="http://www.w3.org/1999/xlink" viewBox="0 0 36.0056 24.9568">
 <g>
  <rect height="24.9568" opacity="0" width="36.0056" x="0" y="0"/>
  <path d="M22.4493 8.98579L6.44943 8.98579C5.34773 8.98579 4.7305 9.61049 4.7305 10.7122L4.7305 17.287C4.7305 18.391 5.34773 19.0157 6.44943 19.0157L26.3953 19.0157C27.4993 19.0157 28.1067 18.391 28.1067 17.287L28.1067 12.5543L31.0713 9.57601C31.1139 9.86235 31.1338 10.1675 31.1338 10.4884L31.1338 17.5034C31.1338 20.4064 29.5072 22.033 26.6042 22.033L6.24053 22.033C3.33983 22.033 1.71085 20.4064 1.71085 17.5034L1.71085 10.4884C1.71085 7.58767 3.33983 5.96615 6.24053 5.96615L25.4749 5.96615Z" fill="white" fill-opacity="0.85"/>
  <path d="M23.8762 14.3176L32.1906 5.998L30.0492 3.85654L21.7371 12.1761L20.8295 14.5412C20.6693 14.9827 21.1132 15.3566 21.4996 15.2113ZM32.9035 5.29257L33.8191 4.32711C34.3319 3.7695 34.4261 2.9615 33.896 2.41365L33.5302 2.04498C33.0788 1.58557 32.2455 1.69518 31.7149 2.22064L30.7644 3.15341Z" fill="white" fill-opacity="0.85"/>
  <path d="M17.754 15.8646C18.6523 15.8646 19.3892 15.1352 19.3892 14.2368C19.3892 13.3385 18.6523 12.6091 17.754 12.6091C16.8557 12.6091 16.1263 13.3385 16.1263 14.2368C16.1263 15.1352 16.8557 15.8646 17.754 15.8646Z" fill="white" fill-opacity="0.85"/>
  <path d="M13.1944 15.8646C14.0927 15.8646 14.8222 15.1352 14.8222 14.2368C14.8222 13.3385 14.0927 12.6091 13.1944 12.6091C12.2961 12.6091 11.5666 13.3385 11.5666 14.2368C11.5666 15.1352 12.2961 15.8646 13.1944 15.8646Z" fill="white" fill-opacity="0.85"/>
  <path d="M8.63475 15.8646C9.53306 15.8646 10.2625 15.1352 10.2625 14.2368C10.2625 13.3385 9.53306 12.6091 8.63475 12.6091C7.73643 12.6091 7.00698 13.3385 7.00698 14.2368C7.00698 15.1352 7.73643 15.8646 8.63475 15.8646Z" fill="white" fill-opacity="0.85"/>
 </g>
</svg>
